# xmcd
#
# Track frame offsets: 
#        150
#        22464
#        41730
#        57292
#        77265
#        99156
#        115858
#        131954
#        149441
#        162453
#        180402
#        199786
#
# Disc length: 2982 seconds
#
# Revision: 0
# Processed by: cddbd v1.5.2PL0 Copyright (c) Steve Scherf et al.
# Submitted via: ExactAudioCopy v0.99pb5
#
DISCID=a60ba40c
DTITLE=Brandon Rhyder - Live at Billy Bob´s - CD 1
DYEAR=2011
DGENRE=Country
TTITLE0=You Burn Me
TTITLE1=It's What I Do
TTITLE2=Between Here and the Front Door
TTITLE3=In the Country
TTITLE4=Let the Good Times Roll
TTITLE5=Before I Knew Your Name
TTITLE6=Lord, I Hope This Day Is Good
TTITLE7=Undercover Lover 
TTITLE8=Nowhere USA 
TTITLE9=You Can't Outdrink the Truth
TTITLE10=Mr. Soldier
TTITLE11=Ultimate Deceiver 
EXTD=
EXTT0=
EXTT1=
EXTT2=
EXTT3=
EXTT4=
EXTT5=
EXTT6=
EXTT7=
EXTT8=
EXTT9=
EXTT10=
EXTT11=
PLAYORDER=
